#!OML:ASF F:\VICON\USERDATA\INSTALL\rory3\rory3.ASF
:FULLY-SPECIFIED
:DEGREES
1484
root 1.5533 9.98136 -5.41375 337.78 33.8861 359.914
lowerback 27.9759 -1.20789 -0.454091
upperback 11.5464 -1.139 2.21761
thorax -2.47428 -0.47049 3.0091
lowerneck -25.0002 -6.43141 -11.7506
upperneck 12.7526 -6.12847 7.53125
head 8.62174 -2.68334 3.57099
rclavicle -6.95746e-015 -1.74931e-014
rhumerus -0.911815 24.8728 -76.5911
rradius 73.4755
rwrist 46.1732
rhand -29.2805 6.89752
rfingers 7.12502
rthumb -2.62265 -383.066
lclavicle -6.95746e-015 -1.74931e-014
lhumerus -5.48291 -11.2501 80.9182
lradius 70.3291
lwrist -25.3558
lhand -31.3382 20.0798
lfingers 7.12502
lthumb -4.60967 50.0096
rfemur -70.2196 -19.3305 16.1572
rtibia 102.557
rfoot -2.48862 6.41937
rtoes 8.72852
lfemur -70.2942 19.7483 -8.35242
ltibia 108.253
lfoot -7.46925 -19.7008
ltoes -17.2036
1485
root 1.55696 9.97693 -5.41146 337.915 33.9125 359.944
lowerback 28.0978 -1.22784 -0.469155
upperback 11.4731 -1.1662 2.23778
thorax -2.61019 -0.483629 3.05195
lowerneck -25.0519 -6.45003 -11.8536
upperneck 12.6988 -6.10545 7.51524
head 8.61172 -2.67787 3.58437
rclavicle 6.4605e-014 2.94201e-014
rhumerus -1.00678 24.9433 -76.7396
rradius 73.7843
rwrist 45.4488
rhand -29.7426 6.55091
rfingers 7.12502
rthumb -3.06883 -383.407
lclavicle 6.4605e-014 2.94201e-014
lhumerus -5.57329 -11.3532 81.014
lradius 70.3942
lwrist -25.5724
lhand -31.2672 20.3034
lfingers 7.12502
lthumb -4.54112 50.2347
rfemur -70.3959 -19.2804 16.0891
rtibia 102.618
rfoot -2.34677 6.37266
rtoes 9.3479
lfemur -70.2848 19.57 -8.68526
ltibia 107.539
lfoot -7.87183 -19.6824
ltoes -18.1526
1486
root 1.56479 9.97201 -5.40568 338.251 33.9398 360.267
lowerback 28.071 -1.16376 -0.70371
upperback 11.4202 -1.14899 2.19232
thorax -2.65337 -0.481299 3.13194
lowerneck -25.0097 -6.46401 -11.8481
upperneck 12.6054 -6.1066 7.41197
head 8.5686 -2.68917 3.54691
rclavicle 1.72943e-014 -3.49861e-014
rhumerus -1.07493 24.9315 -76.8775
rradius 73.9857
rwrist 44.6236
rhand -29.3798 6.85984
rfingers 7.12502
rthumb -2.7185 -383.103
lclavicle 1.72943e-014 -3.49861e-014
lhumerus -5.52841 -11.5614 81.0936
lradius 70.257
lwrist -25.8198
lhand -31.3716 20.3368
lfingers 7.12502
lthumb -4.64197 50.2659
rfemur -70.654 -19.2195 15.7837
rtibia 102.711
rfoot -2.23975 6.42785
rtoes 10.4399
lfemur -70.2252 19.4279 -9.22439
ltibia 106.844
lfoot -8.0865 -19.7632
ltoes -18.6542
1487
root 1.56931 9.97235 -5.40221 338.479 33.9691 360.485
lowerback 28.1239 -1.13858 -0.797057
upperback 11.3976 -1.14374 2.13221
thorax -2.70267 -0.479194 3.11968
lowerneck -25.1019 -6.49706 -11.7823
upperneck 12.5116 -6.12442 7.24542
head 8.54415 -2.70897 3.47375
rclavicle 1.43125e-014 -2.06736e-014
rhumerus -1.20642 24.6498 -77.1479
rradius 74.2368
rwrist 44.1199
rhand -28.3639 7.80261
rfingers 7.12502
rthumb -1.7374 -382.17
lclavicle 1.43125e-014 -2.06736e-014
lhumerus -5.48417 -11.8305 81.1114
lradius 70.1519
lwrist -26.1758
lhand -31.2643 20.3478
lfingers 7.12502
lthumb -4.53831 50.2792
rfemur -70.7803 -19.2251 15.6079
rtibia 102.767
rfoot -2.32735 6.47589
rtoes 10.4104
lfemur -70.0628 19.2464 -9.62533
ltibia 106.132
lfoot -8.2118 -19.9474
ltoes -18.2858
1488
root 1.57467 9.96666 -5.39624 338.528 33.922 360.422
lowerback 28.273 -1.15937 -0.673946
upperback 11.3683 -1.13631 2.14281
thorax -2.80776 -0.470416 3.06251
lowerneck -25.2161 -6.5163 -11.7341
upperneck 12.415 -6.10442 7.02767
head 8.51705 -2.71692 3.39121
rclavicle 2.32578e-014 -1.03368e-014
rhumerus -1.3353 24.435 -77.3573
rradius 74.5328
rwrist 43.6919
rhand -28.3862 8.50444
rfingers 7.12502
rthumb -1.75891 -381.468
lclavicle 2.32578e-014 -1.03368e-014
lhumerus -5.51355 -12.0372 81.2005
lradius 70.0686
lwrist -26.5991
lhand -31.1358 20.226
lfingers 7.12502
lthumb -4.41431 50.16
rfemur -70.8362 -19.2156 15.7198
rtibia 102.834
rfoot -2.51149 6.47138
rtoes 10.5862
lfemur -69.9168 19.1189 -9.75468
ltibia 105.447
lfoot -8.5566 -20.0706
ltoes -18.3683
1489
root 1.58485 9.95335 -5.38548 338.647 33.9022 360.392
lowerback 28.2792 -1.13794 -0.672178
upperback 11.3547 -1.10541 2.19468
thorax -2.82635 -0.456268 3.10983
lowerneck -25.1789 -6.46909 -11.7025
upperneck 12.2281 -6.02024 6.88844
head 8.43224 -2.68929 3.35044
rclavicle -1.92821e-014 -9.54166e-015
rhumerus -1.38603 24.3555 -77.4236
rradius 74.7043
rwrist 43.1373
rhand -28.6731 8.63097
rfingers 7.12502
rthumb -2.03595 -381.339
lclavicle -1.92821e-014 -9.54166e-015
lhumerus -5.45157 -12.2613 81.361
lradius 69.7171
lwrist -27.1861
lhand -31.2786 19.9659
lfingers 7.12502
lthumb -4.55213 49.897
rfemur -71.0087 -19.1841 15.7729
rtibia 102.959
rfoot -2.72095 6.49158
rtoes 11.2949
lfemur -69.8538 18.9558 -9.91131
ltibia 104.793
lfoot -8.96923 -19.9641
ltoes -18.8171
